<?xml version="1.0" encoding="utf-8"?>
<!-- Generator: Adobe Illustrator 19.0.0, SVG Export Plug-In . SVG Version: 6.00 Build 0)  -->
<svg version="1.1" id="Layer_1" xmlns="http://www.w3.org/2000/svg" xmlns:xlink="http://www.w3.org/1999/xlink" x="0px" y="0px"
	 viewBox="0 0 20.3 8.5" style="enable-background:new 0 0 20.3 8.5;" xml:space="preserve">
<style type="text/css">
	.st0{fill:#FFFFFF;}
</style>
<g id="XMLID_2_">
	<path id="XMLID_3_" class="st0" d="M0.2,4.2c0.6,0.1,1.1,0.1,1.5,0.1c1.2,0,1.9-0.2,1.9-0.7c0-0.2-0.1-0.4-0.3-0.7
		c-0.4-0.6-1-1.2-1.9-1.8L1.2,1.1L2,0l0.1,0.1c1.8,1.3,2.8,2.6,2.8,3.8c0,0.5-0.2,1-0.7,1.3C3.7,5.5,3,5.7,2.1,5.7
		c-0.9,0-1.6,0-2-0.1L0,5.6V4.2L0.2,4.2z"/>
	<path id="XMLID_5_" class="st0" d="M10.2,4.9C10.1,6,9.7,6.9,9,7.5C8.4,8,7.5,8.3,6.2,8.5l-0.1,0L5.8,7.2l0.2,0
		C6.7,7.1,7.3,7,7.8,6.7s0.8-0.6,1-1c-0.3,0-0.5,0.1-0.7,0.1C7.3,5.7,6.8,5.5,6.5,5C6,4.3,5.9,3.5,6.4,2.6c0.4-1,1-1.4,1.8-1.4
		c0.7,0,1.3,0.4,1.7,1.2C10.1,3,10.2,3.9,10.2,4.9z M8.9,4.4c0-1.2-0.3-1.8-0.8-1.8c-0.3,0-0.5,0.2-0.7,0.6C7.4,3.4,7.3,3.6,7.3,3.7
		c0,0.2,0.1,0.4,0.2,0.5C7.8,4.5,8.2,4.5,8.9,4.4z"/>
	<path id="XMLID_8_" class="st0" d="M13.3,2.6l1.2-0.5l0.1,0.1C14.9,3,15,3.7,15,4.6c0,1.1-0.3,2-1,2.7s-1.7,1-3,1.2l-0.1,0
		l-0.2-1.3l0.2,0c0.3,0,0.6-0.1,0.9-0.1s0.5-0.2,0.7-0.3s0.4-0.2,0.6-0.4s0.3-0.3,0.4-0.5s0.2-0.4,0.2-0.6s0.1-0.5,0.1-0.7
		c0-0.8-0.1-1.4-0.3-1.9L13.3,2.6z"/>
	<path id="XMLID_10_" class="st0" d="M20.3,4.9c-0.1,1.1-0.4,1.9-1.2,2.6c-0.6,0.5-1.5,0.8-2.8,0.9l-0.1,0L16,7.2l0.2,0
		C16.9,7.1,17.5,7,18,6.7s0.8-0.6,1-1c-0.3,0-0.5,0.1-0.7,0.1c-0.7,0-1.3-0.2-1.6-0.7c-0.5-0.7-0.5-1.5-0.1-2.4c0.4-1,1-1.4,1.8-1.4
		c0.7,0,1.3,0.4,1.7,1.2C20.3,3,20.4,3.9,20.3,4.9z M19.1,4.4c0-1.2-0.3-1.8-0.8-1.8c-0.3,0-0.5,0.2-0.7,0.6
		c-0.1,0.2-0.1,0.4-0.1,0.6c0,0.2,0.1,0.4,0.2,0.5C17.9,4.5,18.4,4.5,19.1,4.4z"/>
</g>
<rect id="XMLID_1_" x="17.2" y="2.3" class="st0" width="2.2" height="2.4"/>
<rect id="XMLID_13_" x="7.3" y="2.6" class="st0" width="1.8" height="1.9"/>
</svg>
