<?xml version="1.0" encoding="utf-8"?>
<!-- Generator: Adobe Illustrator 19.0.0, SVG Export Plug-In . SVG Version: 6.00 Build 0)  -->
<svg version="1.1" id="Layer_1" xmlns="http://www.w3.org/2000/svg" xmlns:xlink="http://www.w3.org/1999/xlink" x="0px" y="0px"
	 viewBox="-212 410.8 214 317.2" style="enable-background:new -212 410.8 214 317.2;" xml:space="preserve">
<style type="text/css">
	.st0{display:none;}
	.st1{display:inline;}
	.st2{fill:#FFFFFF;}
	.st3{display:none;opacity:0.61;}
	.st4{display:inline;fill:#FFED00;}
	.st5{display:none;fill:#009F09;}
	.st6{fill:none;}
</style>
<g class="st0">
	<g class="st1">
		<path class="st2" d="M-336,356.7c133.9,0,267.7,0,401.7,0c0,137.5,0,275.1,0,412.7c-134.4,0-268.8,0-403.2,0
			c0-129.1,0-258.2,0-387.3C-335.7,373.8-335.3,365.3-336,356.7z M-173.4,501.4c-1.3,0.2-2.3,0.2-3.2,0.6c-4.4,1.7-8.6,4.1-13.1,5.1
			c-4.4,1-7.3,4.2-11.8,5.3c-11.7,3-22.9,7.8-34.2,12c-3.4,1.3-6.8,2.9-9.7,4.2c0.2,1.6,0.4,2.8,0.4,3.9c-0.1,4.7-1.3,9.8,0,14.2
			c1.1,3.8,1.7,6.9,0.8,10.8c-0.7,3.1,0.1,6.5,0.2,9.7c0.2,12.8,0.3,25.7,0.6,38.5c0,1.4,1.1,2.7,1.4,3.3c0,8.8,0,17,0,25.3
			c0.4,0,0.7,0,1.1,0.1c0.3-2.5,0.7-5,1-7.5c0.8,0.6,0.8,1.2,1,1.6c0.6,1.1,1.2,2.1,1.9,3.2c0.6-1.2,1.5-2.4,1.8-3.7
			c0.5-2.5,0.5-5.2,0.7-7.7c0.7,0,1.4,0.1,2.1,0.1c-1.9,8.7,1.6,17.5-1.1,26.2c1.6,0.3,3.2,0.6,4.9,0.9c0,0.4,0.1,0.8,0.1,1.2
			c-2.1,0.9-4.1,2.1-6.3,2.4c-0.9,0.1-2.6-1.7-3-2.9c-0.3-0.9-1.2-3.8,2.1-3.1c0.2,0,0.9-1.1,1-1.7c0.1-2.9,0.1-5.9,0.1-8.8
			c0-0.2-0.3-0.4-0.5-0.6c-0.5,0.6-1,1.2-1.5,1.7c-0.6-0.7-1.1-1.4-1.7-2c-0.4,0-0.8,0.1-1.2,0.1c-0.2,3.6-0.3,7.2-0.7,10.8
			c-0.2,2-0.7,4-1.1,6c-0.3-0.1-0.6-0.1-1-0.2c0.8,1.3,1.6,2.6,2.3,3.6c-1.5,0.8-2.5,1.2-3.4,1.7c0.2,0.4,0.3,0.7,0.5,1.1
			c3.1-1.2,6.2-2.6,9.6-0.9c0.7,0.3,1.5,0.3,2.3,0.3c12.3,0.7,24.6,1.3,36.9,2c9.8,0.5,19.7,1.1,29.5,1.6c17.6,1,35.1,1.9,52.7,3.1
			c2.4,0.2,4.7,1.6,7.5,2.6c3.1-2.6,6-2.7,10.4,0.5c-0.5-1.5-1-2.7-1.4-3.9c1.2,0.1,2.4,0.6,3.3,0.3c6-2.1,11.9-4.3,17.9-6.5
			c5.4-2,10.8-3.9,16.1-5.9c4.7-1.7,9-2.2,11.1,3.8c0,0.1,0.4,0.2,1.4,0.5c-1.3-2.5-2.3-4.4-3.6-6.9c4.2-1.3,8.5-2.6,13.4-4.1
			c-3.6-3.7-2.3-6.4-0.5-8.3c-0.3-2.1-0.8-3.6-0.8-5.2c-0.2-13.6-0.3-27.2-0.5-40.8c-0.1-4.9-0.5-9.8-0.4-14.7
			c0-1.6,1.1-3.3,1.5-4.3c-0.6-1.1-1.6-2-1.7-3c-0.2-6.4-0.6-12.7-0.2-19.1c0.6-9.2-1.9-16.9-9.7-22.2c-3-2-5.3-4.9-7.7-7.3
			c-14.3-14.7-28.8-29.1-44.5-42.3c-2.2-1.9-3.8-4-2.8-7.2c0.3-1-0.5-2.2-0.9-3.9c-2.3,2.8,1.9,8.5-3.7,7c-1.8,2.3-2.8,4.9-4.5,5.6
			c-15.4,6.2-30.9,12-46.4,18c-2,0.8-3.9,1.7-5.9,2.5C-167.5,499.4-170.6,500.4-173.4,501.4z M-180.2,406.1
			c-2.1,1.4-3.5,2.3-4.8,3.3c-2.1,1.6-3.6,1.8-5.6-0.7c-2.2-2.8-5.1-5-8-7.2c-1.4-1.1-3.3-1.9-4.5,0.8c-1,2.3-2.3,4.4-3.1,6
			c0.8,0.9,2.3,2.4,2.1,2.5c-1.4,1.9-3.1,3.5-5.1,5.6c5.9,1.6,8.8,6.1,9.8,12.2c0,0.3,0.1,0.6,0.2,0.7c0.6,0.5,1.3,0.9,2,1.3
			c0.4-0.7,1.2-1.5,1.2-2.2c0-2.2-0.5-4.4-0.3-6.6c0.3-4.4,0.9-8.9,1.3-13.3c0.4-0.1,0.8-0.1,1.2-0.2c1.9,2,3.7,4,5.4,5.8
			C-184.1,413.7-181.3,411.5-180.2,406.1z M33.3,618.9c3.8,0.2,8,0.4,12.3,0.6c0,0.4,0,0.9,0,1.3c-1,0.3-2,0.5-3,0.8
			c3.5,3.4,5.6-0.4,7.8-0.9c-0.4-1.4-0.5-2.7-1.1-3.6c-0.8-1-2.7-2.6-3-2.4c-3.6,2.7-7.6-1-10.5,1.3
			C34.8,617.2,33.9,618.2,33.3,618.9z M-271.5,402.7c-1.8-3.2-4.9-3.7-10.3-1.4c0.8,1.2,1.6,2.3,2.5,3.6
			C-276.6,404.2-274,403.4-271.5,402.7z M-214.8,739.4c0,0.3-0.1,0.6-0.1,0.8c7.3,0.5,14.5,1,21.8,1.5c0-0.1,0-0.2,0-0.3
			C-200.4,740.8-207.6,740.1-214.8,739.4z M-17.6,636.6c0.1,0.4,0.1,0.7,0.2,1.1c4.7-1.3,9.3-2.5,14-3.8c-0.1-0.4-0.2-0.9-0.4-1.3
			C-8.3,633.9-12.9,635.2-17.6,636.6z"/>
		<path d="M-336,356.7c0.7,8.6,0.3,17.1-1.6,25.5c0-7.8,0-15.6,0-23.5C-337.6,357.7-338,356.2-336,356.7z"/>
		<path d="M-173.4,501.4c2.8-1,5.9-2,8.9-3.1c2-0.7,3.9-1.7,5.9-2.5c15.5-6,31-11.8,46.4-18c1.8-0.7,2.8-3.4,4.5-5.6
			c5.6,1.5,1.5-4.3,3.7-7c0.4,1.7,1.2,3,0.9,3.9c-1,3.3,0.6,5.3,2.8,7.2c15.6,13.3,30.1,27.7,44.5,42.3c2.4,2.4,4.7,5.3,7.7,7.3
			c7.8,5.3,10.3,13,9.7,22.2c-0.4,6.3,0,12.7,0.2,19.1c0,1,1,2,1.7,3c-0.4,1.1-1.4,2.7-1.5,4.3c-0.1,4.9,0.3,9.8,0.4,14.7
			c0.2,13.6,0.3,27.2,0.5,40.8c0,1.6,0.5,3.1,0.8,5.2c-1.8,1.9-3,4.6,0.5,8.3c-4.9,1.5-9.2,2.8-13.4,4.1c1.3,2.4,2.3,4.4,3.6,6.9
			c-1-0.3-1.4-0.3-1.4-0.5c-2.1-6-6.4-5.5-11.1-3.8c-5.4,2-10.8,3.9-16.1,5.9c-6,2.2-11.9,4.4-17.9,6.5c-0.9,0.3-2.1-0.2-3.3-0.3
			c0.4,1.2,0.8,2.4,1.4,3.9c-4.4-3.2-7.3-3.1-10.4-0.5c-2.8-1-5.1-2.4-7.5-2.6c-17.6-1.3-35.2-2.3-52.8-3.3
			c-9.8-0.6-19.7-1.1-29.5-1.6c-12.3-0.7-24.6-1.3-36.9-2c-0.8,0-1.7,0-2.3-0.3c-3.4-1.7-6.5-0.3-9.6,0.9c-0.2-0.4-0.3-0.7-0.5-1.1
			c0.9-0.5,1.9-0.9,3.4-1.7c-0.7-1.1-1.5-2.3-2.3-3.6c0.3,0.1,0.6,0.1,1,0.2c0.4-2,0.9-4,1.1-6c0.3-3.6,0.5-7.2,0.7-10.8
			c0.4,0,0.8-0.1,1.2-0.1c0.5,0.6,1,1.2,1.7,2c0.5-0.5,0.9-1.1,1.5-1.7c0.2,0.2,0.5,0.4,0.5,0.6c0,2.9,0,5.9-0.1,8.8
			c0,0.6-0.8,1.7-1,1.7c-3.3-0.7-2.4,2.2-2.1,3.1c0.4,1.2,2.1,3.1,3,2.9c2.2-0.3,4.2-1.5,6.3-2.4c0-0.4-0.1-0.8-0.1-1.2
			c-1.6-0.3-3.2-0.6-4.9-0.9c2.7-8.7-0.7-17.5,1.2-26.2c-0.7,0-1.4-0.1-2.1-0.1c-0.2,2.6-0.3,5.2-0.7,7.7c-0.2,1.3-1.2,2.5-1.8,3.7
			c-0.6-1.1-1.3-2.1-1.9-3.2c-0.2-0.4-0.2-1-1-1.6c-0.3,2.5-0.7,5-1,7.5c-0.4,0-0.7,0-1.1-0.1c0-8.2,0-16.5,0-25.3
			c-0.3-0.6-1.4-2-1.4-3.3c-0.3-12.8-0.4-25.7-0.6-38.5c0-3.3-0.9-6.7-0.2-9.7c0.9-3.9,0.3-7-0.8-10.8c-1.3-4.3-0.1-9.4,0-14.2
			c0-1.2-0.2-2.3-0.4-3.9c3-1.3,6.3-2.9,9.7-4.2c11.3-4.2,22.5-9.1,34.2-12c4.5-1.1,7.4-4.3,11.8-5.3c4.5-1,8.7-3.4,13.1-5.1
			C-175.7,501.6-174.7,501.6-173.4,501.4z M-197.5,636.9c7.1-0.3,13.1-0.6,19.1-0.7c12.8-0.4,25.5-0.6,38.3-1.2
			c10.1-0.5,20.3-1.6,30.4-2.1c3-0.1,3.5-1.1,3.3-3.8c-0.5-7-0.8-14-0.8-21c-0.2-13.6,0-27.1-0.2-40.7c-0.1-9.3-0.5-18.5-0.8-27.8
			c-0.3-11-0.7-21.9-1-32.9c-0.1-2.5,0.1-5,0.1-7.5c0-1.8-0.3-3.6-0.4-5.3c-0.1,0-0.2,0.1-0.3,0.1c0.2-1.5,0.4-3.1,0.5-4.6
			c-1.5,0.2-3.3-0.2-4.3,0.6c-6.8,4.6-14.1,8.5-21,12.9c-18.3,11.6-36.3,23.5-54.5,35.3c-3.4,2.2-6.5,4.7-9.8,7
			c1.2,1.4,2,2.3,2.2,2.6c-0.9,1.2-2,1.9-2.1,2.7c-0.2,7.9-0.5,15.9-0.3,23.8c0.2,9.9,0.8,19.9,0.9,29.8c0.1,7-0.6,14-0.5,21
			C-198.7,629.2-197.9,633.3-197.5,636.9z M-241.6,594.8c-0.3,0-0.5,0-0.8,0c0,3.8,0,7.7,0,11.5c0.3,0,0.5,0,0.8,0
			C-241.6,602.4-241.6,598.6-241.6,594.8z M-227,635.9c2.1-3.1,3.8-5.7,5.5-8.3c-0.4-0.2-0.7-0.4-1.1-0.6
			C-224.1,629.7-227.9,631.1-227,635.9z M-218.8,633.1c-1,0.2-2.4,0.4-3.5,0.6c0,2.4,0,4.4,0,6.5c0.3,0,0.6,0.1,0.9,0.1
			C-220.6,637.9-219.7,635.6-218.8,633.1z M-213.4,596.8c0.6,0,1.3,0,1.9-0.1c-0.3-2.6-0.5-5.1-0.8-7.7c-0.4,0-0.7,0.1-1.1,0.1
			C-213.4,591.7-213.4,594.2-213.4,596.8z"/>
		<path d="M-180.2,406.1c-1.1,5.4-3.9,7.6-8.2,8c-1.7-1.9-3.6-3.8-5.4-5.8c-0.4,0.1-0.8,0.1-1.2,0.2c-0.4,4.4-1,8.9-1.3,13.3
			c-0.1,2.2,0.4,4.4,0.3,6.6c0,0.7-0.8,1.5-1.2,2.2c-0.7-0.4-1.4-0.9-2-1.3c-0.2-0.1-0.2-0.5-0.2-0.7c-0.9-6.1-3.9-10.6-9.8-12.2
			c1.9-2,3.6-3.7,5.1-5.5c0.1-0.2-1.3-1.6-2.1-2.5c0.9-1.6,2.1-3.8,3.1-6c1.2-2.7,3.1-1.9,4.5-0.8c2.8,2.2,5.8,4.5,8,7.2
			c2,2.5,3.5,2.3,5.6,0.7C-183.7,408.4-182.3,407.5-180.2,406.1z"/>
		<path d="M33.3,618.9c0.6-0.7,1.5-1.8,2.4-2.8c2.9-2.3,6.9,1.4,10.5-1.3c0.3-0.2,2.2,1.3,3,2.4c0.7,0.9,0.7,2.2,1.1,3.6
			c-2.2,0.5-4.3,4.3-7.8,0.9c1-0.3,2-0.5,3-0.8c0-0.4,0-0.9,0-1.3C41.3,619.3,37.1,619.1,33.3,618.9z"/>
		<path d="M-271.5,402.7c-2.5,0.7-5.1,1.5-7.8,2.3c-0.9-1.3-1.7-2.5-2.5-3.6C-276.3,399-273.2,399.4-271.5,402.7z"/>
		<path d="M-214.8,739.4c7.2,0.7,14.4,1.4,21.6,2.1c0,0.1,0,0.2,0,0.3c-7.3-0.5-14.5-1-21.8-1.5
			C-214.9,739.9-214.9,739.6-214.8,739.4z"/>
		<path d="M-17.6,636.6c4.6-1.3,9.2-2.7,13.9-4c0.1,0.4,0.2,0.9,0.4,1.3c-4.7,1.3-9.3,2.5-14,3.8C-17.4,637.3-17.5,636.9-17.6,636.6
			z"/>
		<path class="st2" d="M-197.5,636.9c-0.4-3.6-1.3-7.6-1.3-11.7c-0.1-7,0.6-14,0.5-21c-0.1-9.9-0.8-19.9-0.9-29.8
			c-0.1-7.9,0.1-15.9,0.3-23.8c0-0.8,1.1-1.5,2.1-2.7c-0.2-0.3-1.1-1.2-2.2-2.6c3.3-2.4,6.4-4.8,9.8-7
			c18.1-11.8,36.2-23.7,54.5-35.3c6.9-4.4,14.2-8.3,21-12.9c1.1-0.7,2.9-0.4,4.3-0.6c-0.2,1.5-0.4,3.1-0.5,4.6
			c0.1,0,0.2-0.1,0.3-0.1c0.2,1.8,0.4,3.6,0.4,5.3c0,2.5-0.2,5-0.1,7.5c0.3,11,0.7,21.9,1,32.9c0.3,9.3,0.7,18.5,0.8,27.8
			c0.2,13.6,0,27.1,0.2,40.7c0.1,7,0.4,14,0.8,21c0.2,2.7-0.3,3.7-3.3,3.8c-10.1,0.5-20.2,1.6-30.4,2.1c-12.8,0.6-25.5,0.8-38.3,1.2
			C-184.4,636.3-190.4,636.6-197.5,636.9z"/>
		<path class="st2" d="M-241.6,594.8c0,3.8,0,7.7,0,11.5c-0.3,0-0.5,0-0.8,0c0-3.8,0-7.7,0-11.5
			C-242.2,594.8-241.9,594.8-241.6,594.8z"/>
		<path class="st2" d="M-227,635.9c-0.9-4.8,2.9-6.2,4.4-8.9c0.4,0.2,0.7,0.4,1.1,0.6C-223.2,630.2-224.9,632.7-227,635.9z"/>
		<path class="st2" d="M-218.8,633.1c-0.9,2.5-1.8,4.8-2.6,7.2c-0.3,0-0.6-0.1-0.9-0.1c0-2.1,0-4.1,0-6.5
			C-221.2,633.5-219.8,633.3-218.8,633.1z"/>
		<path class="st2" d="M-213.4,596.8c0-2.5,0-5.1,0-7.6c0.4,0,0.7-0.1,1.1-0.1c0.3,2.6,0.5,5.1,0.8,7.7
			C-212.2,596.7-212.8,596.7-213.4,596.8z"/>
	</g>
</g>
<g class="st3">
	<polygon class="st4" points="-244.6,660.7 -105.8,673.9 -105.8,473.3 -244.6,524.7 	"/>
	<polygon class="st4" points="-33.5,657.3 -105.8,673.9 -105.8,473.3 -33.5,538.1 	"/>
</g>
<polygon class="st5" points="-199.8,636.9 -105.8,641.5 -105.8,488.1 -199.8,564.5 "/>
<g>
	<g>
		<line class="st6" x1="-71.6" y1="613.6" x2="-71.6" y2="410.8"/>
		<line class="st6" x1="-71.6" y1="423" x2="-71.6" y2="410.8"/>
		<path class="st2" d="M-75,412.1l-133,49.2c-2.4,0.9-3.9,3.1-3.9,5.6v131.6c0,2.1,1.6,3.8,3.7,4l135.8,11c0.6,0,1.1,0,1.7-0.1
			l67.4-13.7c2.8-0.6,4.8-3,4.8-5.9V478.9c0-1.7-0.7-3.3-2-4.5l-68.4-61.2C-70.6,411.7-72.9,411.3-75,412.1z M-76,584.1l-90-7.6
			c-2.1-0.2-3.7-1.9-3.7-4v-66.7c0-1.8,0.8-3.5,2.2-4.7l91-74.1c2-1.6,4.9-0.2,4.9,2.3v150.8C-71.6,582.5-73.6,584.3-76,584.1z"/>
		<line class="st6" x1="-71.6" y1="613.6" x2="-71.6" y2="584.5"/>
	</g>
	<g>
		<path class="st2" d="M-212,703.8h6.2c6.8,0,8.8,4.7,8.8,9.5c0,5.4-2.7,9.5-8.8,9.5h-6.2V703.8z M-210.8,721.8h5.1
			c3.5,0,7.5-1.9,7.5-8.5c0-7.8-5-8.4-7.8-8.4h-4.8V721.8z"/>
		<path class="st2" d="M-194.1,716.1c-0.1,3.2,1.6,6.1,5,6.1c2.6,0,4.4-1.5,4.9-4.1h1c-0.5,3.2-2.7,4.9-5.9,4.9c-4,0-6.1-3.1-6-6.9
			c-0.1-3.7,1.9-7.4,6-7.4c4.3,0,6.2,3.4,6,7.3L-194.1,716.1L-194.1,716.1z M-184,715.2c-0.1-2.9-1.9-5.5-5-5.5c-3,0-4.8,2.8-5,5.5
			H-184z"/>
		<path class="st2" d="M-180.2,718.2c0.2,2.5,2,4,4.5,4c1.8,0,4.3-0.5,4.3-2.9c0-2.3-2.3-2.7-4.7-3.1c-2.4-0.5-4.7-1.1-4.7-3.9
			c0-2.7,2.6-3.5,4.9-3.5c2.9,0,5,1.2,5,4.4h-1c0-2.5-1.8-3.5-4-3.5c-1.9,0-3.9,0.7-3.9,2.6c0,2.2,2.3,2.5,4.5,3
			c2.7,0.5,4.8,1.1,4.8,4s-2.9,3.8-5.3,3.8c-3.1,0-5.4-1.7-5.5-4.9H-180.2z"/>
		<path class="st2" d="M-167.6,706.6v-2.8h1v2.7L-167.6,706.6L-167.6,706.6z M-167.6,722.8v-13.7h1v13.7H-167.6z"/>
		<path class="st2" d="M-152.1,709.1V722c0,1.1,0,6.1-5.9,5.9c-2.9,0-5.2-1.1-5.3-4.3h1c0.2,2.4,2.1,3.4,4.4,3.4
			c4.8,0,4.9-3.9,4.9-4.8v-3.1h-0.1c-1,2-2.6,3.1-4.9,3.1c-4,0-5.9-2.9-5.9-6.7c0-3.6,2-6.7,5.9-6.7c2.1,0,4.2,1.1,4.9,3.2h0.1v-2.8
			L-152.1,709.1L-152.1,709.1z M-163,715.5c0,3.2,1.7,5.9,4.9,5.9c3.3,0,5-2.8,5-5.9s-1.6-5.8-5-5.8
			C-161.4,709.7-163,712.6-163,715.5z"/>
		<path class="st2" d="M-149.1,709.1h1v2.9h0.1c0.7-2,2.8-3.2,4.9-3.2c4.8,0,4.9,3.9,4.9,5.5v8.5h-1v-8.6c0-1.4-0.2-4.5-3.9-4.5
			c-3.1,0-4.9,2.4-4.9,5.7v7.4h-1v-13.7H-149.1z"/>
		<path class="st2" d="M-117.3,720c-1.2,1.9-3.1,3.1-5.4,3.1c-3.2,0-5.6-1.6-5.6-4.8c0-3.1,2.8-4.6,4.9-6c-1.2-1.5-2.6-2.9-2.6-4.9
			s2-3.3,4-3.3c2.1,0,4,1.1,4,3.3c0,2.7-2.1,3.8-3.9,5.2l4.5,5.6c0.4-1,0.6-2.1,0.6-3.2h1c-0.1,1.4-0.4,2.8-1,4l3.1,3.8h-1.3
			L-117.3,720z M-122.8,713.1c-2,1.3-4.5,2.5-4.5,5.2c0,2.5,2.3,4,4.6,4c3.2,0,4.8-2.9,4.7-3.1L-122.8,713.1z M-119,707.4
			c0-1.4-1.5-2.4-3-2.4s-3,1-3,2.4c0,1.8,1.6,3.2,2.4,4.4C-121,710.8-119,709.6-119,707.4z"/>
		<path class="st2" d="M-89.9,709.5c-0.5-3.2-3.3-5.1-6.5-5.1c-5,0-7.9,4.1-7.9,8.9c0,4.9,2.9,8.9,7.9,8.9c3.7,0,6.6-3.3,6.8-6.8
			h1.2c-0.4,4.5-3.8,7.8-7.9,7.8c-5.7,0-9-4.4-9-9.9c0-5.6,3.3-9.9,9-9.9c6.7,0,7.6,5.8,7.6,6.1H-89.9z"/>
		<path class="st2" d="M-80.5,708.8c4,0,6.3,3.3,6.3,7.1c0,3.8-2.3,7.1-6.3,7.1s-6.3-3.3-6.3-7.1C-86.8,712.1-84.5,708.8-80.5,708.8
			z M-80.5,722.2c3.4,0,5.3-3,5.3-6.3c0-3.3-1.8-6.3-5.3-6.3c-3.4,0-5.3,3-5.3,6.3C-85.7,719.2-83.9,722.2-80.5,722.2z"/>
		<path class="st2" d="M-71.8,709.1h1v2.9h0.1c0.7-2,2.8-3.2,4.9-3.2c4.8,0,4.9,3.9,4.9,5.5v8.5h-1v-8.6c0-1.4-0.2-4.5-3.9-4.5
			c-3.1,0-4.9,2.4-4.9,5.7v7.4h-1v-13.7H-71.8z"/>
		<path class="st2" d="M-57.6,718.2c0.2,2.5,2,4,4.5,4c1.8,0,4.3-0.5,4.3-2.9c0-2.3-2.3-2.7-4.7-3.1c-2.4-0.5-4.7-1.1-4.7-3.9
			c0-2.7,2.6-3.5,4.9-3.5c2.9,0,5,1.2,5,4.4h-1c0-2.5-1.8-3.5-4-3.5c-1.9,0-3.9,0.7-3.9,2.6c0,2.2,2.3,2.5,4.5,3
			c2.7,0.5,4.8,1.1,4.8,4s-2.9,3.8-5.3,3.8c-3.1,0-5.4-1.7-5.5-4.9H-57.6z"/>
		<path class="st2" d="M-40.2,710h-3v9.5c0,2.2,1,2.4,2.9,2.4v0.9c-2.1,0.1-4.1-0.2-4-3.2v-9.5h-2.5v-0.9h2.5v-4.3h1v4.3h3v0.8
			H-40.2z"/>
		<path class="st2" d="M-37.4,712.2L-37.4,712.2c0.6-1.8,2.8-3.2,5.3-3.1v1c-1.1-0.1-2.6,0.1-3.8,1.3c-1,1-1.4,1.9-1.5,3.9v7.5h-1
			v-13.7h1V712.2z"/>
		<path class="st2" d="M-20.2,722.8h-1v-2.9h-0.1c-0.7,2-2.8,3.2-4.9,3.2c-4.8,0-4.9-3.9-4.9-5.5v-8.5h1v8.6c0,1.4,0.2,4.5,3.9,4.5
			c3.1,0,4.9-2.4,4.9-5.7v-7.4h1v13.7H-20.2z"/>
		<path class="st2" d="M-6.9,713.4c-0.2-2.4-2.2-3.7-4.6-3.7c-3.4,0-5.3,3-5.3,6.1c0,3.7,1.7,6.4,5.3,6.4c2.6,0,4.4-1.8,4.8-4.3h1
			c-0.5,3.3-2.8,5.1-5.8,5.1c-4.4,0-6.3-3.5-6.3-7.3s2.2-7,6.3-7c2.9,0,5.3,1.4,5.6,4.5h-1V713.4z"/>
		<path class="st2" d="M1.6,710h-3v9.5c0,2.2,1,2.4,2.9,2.4v0.9c-2.1,0.1-4.1-0.2-4-3.2v-9.5H-5v-0.9h2.5v-4.3h1v4.3h3v0.8H1.6z"/>
	</g>
	<g>
		<path class="st2" d="M-194.1,634.6h10.1l16.7,44.7h-10.2l-3.4-10h-16.7l-3.5,10h-10L-194.1,634.6z M-195.1,662h11.6l-5.6-16.4
			h-0.1L-195.1,662z"/>
		<path class="st2" d="M-157.5,668.8c0,1.8,0.7,3.2,2,4.1c1.3,0.9,2.9,1.3,4.8,1.3c1.5,0,2.9-0.3,4.1-1c1.2-0.7,1.8-1.7,1.8-3.1
			c0-1.3-0.8-2.2-2.3-2.8s-4.1-1.4-7.8-2.2c-1.5-0.3-2.8-0.7-4-1.1c-1.1-0.4-2.2-0.9-3.2-1.6c-1-0.6-1.7-1.5-2.3-2.4
			c-0.6-1-0.8-2.2-0.8-3.5c0-2,0.4-3.6,1.2-5c0.8-1.4,1.8-2.5,3.2-3.2c1.3-0.8,2.8-1.3,4.5-1.7c1.6-0.3,3.4-0.5,5.3-0.5
			c1.9,0,3.6,0.2,5.2,0.5c1.6,0.4,3.1,0.9,4.4,1.7c1.3,0.8,2.4,1.9,3.2,3.2c0.8,1.3,1.3,3,1.5,4.9h-8.5c-0.1-1.6-0.7-2.8-1.8-3.4
			s-2.5-1-4.3-1c-1.4,0-2.5,0.2-3.5,0.6c-1,0.4-1.4,1.2-1.4,2.4c0,1.2,0.6,2.1,1.9,2.6c1.3,0.5,3.2,1.1,5.8,1.6
			c1.2,0.3,2,0.4,2.4,0.6c1.5,0.3,2.8,0.7,4,1.2c1.2,0.4,2.2,1,3.2,1.7c1,0.7,1.7,1.5,2.3,2.6c0.5,1,0.8,2.3,0.8,3.7
			c0,2-0.4,3.8-1.2,5.3c-0.8,1.5-1.9,2.6-3.3,3.5c-1.4,0.9-3,1.5-4.7,1.9c-1.7,0.4-3.6,0.6-5.5,0.6c-2,0-3.9-0.2-5.6-0.6
			s-3.3-1-4.8-1.9c-1.4-0.9-2.6-2.1-3.4-3.6c-0.9-1.5-1.3-3.2-1.4-5.3H-157.5z"/>
		<path class="st2" d="M-129.8,634.6h9.8l18.7,30h0.1v-30h9.2v44.7h-9.8l-18.6-29.9h-0.1v29.9h-9.2V634.6z"/>
		<path class="st2" d="M-80.8,650.7c3-3.1,7.1-4.7,12.2-4.7c5.1,0,9.2,1.6,12.2,4.7c3,3.1,4.6,7.3,4.6,12.4c0,5.1-1.5,9.3-4.6,12.4
			c-3,3.1-7.1,4.7-12.2,4.7c-5.1,0-9.1-1.6-12.2-4.7c-3-3.1-4.6-7.2-4.6-12.4C-85.3,657.9-83.8,653.8-80.8,650.7z M-76,667
			c0.3,1.2,0.7,2.3,1.3,3.3c0.6,1,1.4,1.8,2.4,2.3c1,0.6,2.2,0.8,3.7,0.8c1.5,0,2.7-0.3,3.7-0.8s1.8-1.3,2.4-2.3
			c0.6-1,1-2.1,1.3-3.3c0.3-1.2,0.4-2.5,0.4-3.9s-0.1-2.7-0.4-3.9c-0.3-1.2-0.7-2.3-1.3-3.3c-0.6-1-1.4-1.8-2.4-2.3
			s-2.3-0.8-3.7-0.8c-1.4,0-2.6,0.3-3.7,0.8c-1,0.6-1.8,1.3-2.4,2.3c-0.6,1-1,2.1-1.3,3.3c-0.3,1.2-0.4,2.5-0.4,3.9
			S-76.3,665.8-76,667z"/>
		<path class="st2" d="M-9,679.3h-9.1l-5.8-21.7h-0.1l-5.5,21.7h-9.2l-10.3-32.4h9.4l6,22h0.1l5.4-22h8.6l5.5,21.9h0.1l6-21.9h9.1
			L-9,679.3z"/>
	</g>
</g>
</svg>
