<?xml version="1.0" encoding="utf-8"?>
<!-- Generator: Adobe Illustrator 19.0.0, SVG Export Plug-In . SVG Version: 6.00 Build 0)  -->
<svg version="1.1" id="Layer_1" xmlns="http://www.w3.org/2000/svg" xmlns:xlink="http://www.w3.org/1999/xlink" x="0px" y="0px"
	 viewBox="0 0 849.8 1105.2" style="enable-background:new 0 0 849.8 1105.2;" xml:space="preserve">
<style type="text/css">
	.st0{fill:#666666;stroke:#666666;stroke-miterlimit:10;}
	.st1{fill:none;}
	.st2{fill:#FFFFFF;}
	.st3{fill:none;stroke:#666666;stroke-width:5;stroke-miterlimit:10;}
</style>
<g id="XMLID_3_">
	<circle id="XMLID_1_" class="st0" cx="424.9" cy="424.9" r="424.4"/>
	<g id="XMLID_62_">
		<line id="XMLID_60_" class="st1" x1="424.9" y1="687.8" x2="424.9" y2="162"/>
		<line id="XMLID_59_" class="st1" x1="424.9" y1="440.7" x2="424.9" y2="409.1"/>
		<path id="XMLID_64_" class="st2" d="M503.2,164.3L158.4,291.9c-6.2,2.3-10.1,8-10.1,14.5v341.2c0,5.4,4.1,9.9,9.6,10.4L510,686.5
			c1.6,0,2.9,0,4.4-0.3l174.8-35.5c7.3-1.6,12.4-7.8,12.4-15.3V337.5c0-4.4-1.8-8.6-5.2-11.7L519,167.2
			C514.6,163.3,508.7,162.3,503.2,164.3z M500.6,610.3l-233.4-19.7c-5.4-0.5-9.6-4.9-9.6-10.4V407.3c0-4.7,2.1-9.1,5.7-12.2
			L499.3,203c5.2-4.1,12.7-0.5,12.7,6v391C512,606.2,506.9,610.8,500.6,610.3z"/>
		<line id="XMLID_56_" class="st1" x1="424.9" y1="462.6" x2="424.9" y2="387.2"/>
	</g>
	<line id="XMLID_2_" class="st3" x1="424.9" y1="849.3" x2="424.9" y2="1105.2"/>
</g>
</svg>
